<?xml version="1.0" encoding="UTF-8"?>
<svg id="Layer_1" xmlns="http://www.w3.org/2000/svg" version="1.1" viewBox="0 0 130 50">
  <!-- Generator: Adobe Illustrator 29.2.1, SVG Export Plug-In . SVG Version: 2.1.0 Build 116)  -->
  <defs>
    <style>
      .st0 {
        fill: #fff;
      }
    </style>
  </defs>
  <path class="st0" d="M0,33.7c1.7,0,2.4-.8,2.4-2.6v-13.1c0-1.8-.6-2.6-2.4-2.6v-1.8h9.7c5.3,0,8.8,2.4,8.8,6.5s-3.2,6.5-8.9,6.5h-1.6v4.3c0,2,1,2.6,3.8,2.6v1.8H0v-1.7h0ZM8,15.3v9.8h.9c2.7,0,4.2-2,4.2-5s-1.5-4.9-4.3-4.9h-.8,0Z"/>
  <path class="st0" d="M18.7,33.7c1.6,0,2.1-.7,2.1-2.4v-6.1c0-.9-.7-1.5-1.6-1.4h-.6v-1.9l6-1.8h1.5v11.1c0,1.7.6,2.4,2.1,2.4v1.8h-9.7v-1.7h.2ZM23.5,13.8c1.6,0,2.9,1.3,2.9,2.9s-1.3,2.9-2.9,2.9-2.9-1.3-2.9-2.9.3-1.5.8-2.1,1.3-.9,2.1-.9h0Z"/>
  <path class="st0" d="M29.7,23.1h-2v-1.2c2.4-.7,5.3-2.6,6.2-5.4h1.1v4.7h3.7v1.9h-3.7v7.3c0,1.8,1,2.4,2,2.4s1.3-.2,1.9-.6l.6,1c-.9,1.5-3,2.6-5.2,2.6-3.2,0-4.6-1.9-4.6-5.1v-7.7h0Z"/>
  <path class="st0" d="M47.2,20.2c1.9,0,3.8.5,5.5,1.5l-1.9,5.2h-1.2c-.3-3.2-1.8-4.4-3.4-4.4s-3,1.7-3,3.9c0,3.4,2.4,5.1,4.8,5.1s2.9-.8,3.6-2.3l1.1.5c-.7,3.5-2.3,6.2-6.5,6.2s-6.8-2.8-6.8-7.2c0-5.2,3.2-8.5,7.8-8.5"/>
  <path class="st0" d="M52.2,33.7c1.6,0,2.1-.7,2.1-2.4v-13.1c0-.9-.7-1.4-1.6-1.4h-.7v-2l6.4-1.6h1.1v10c.8-2.1,2.4-3.2,4.5-3.2s4.7,1.6,4.7,4.9v6.2c0,1.7.6,2.4,2.1,2.4v1.8h-8.9v-1.8c1.3,0,1.3-.8,1.3-2.3v-6.2c0-1.4-.7-2-1.9-2s-1.8.7-2,1.7v6.5c0,1.5,0,2.3,1.3,2.3v1.8h-8.9v-1.7h.5Z"/>
  <path class="st0" d="M71.9,33.7c1.6,0,2.1-.7,2.1-2.4v-8.2h-2.1v-1.2c1.7,0,2.3-.5,2.3-1.7,0-2.9,2.6-6.9,7.9-6.9s3.5.6,5.1,1.2l-2.3,5.6-1.1-.2c0-3-.9-5-2.7-5s-2.3,1.2-2.3,2.8.3,2.5.6,3.4h3.2v1.9h-3.1v8.1c0,1.7.6,2.4,2.1,2.4v1.8h-9.7v-1.7h0Z"/>
  <path class="st0" d="M82.4,27.9c0-5.1,3.6-7.9,7.8-7.9s7.8,2.8,7.8,7.9-3.6,7.9-7.8,7.9-7.8-2.8-7.8-7.9M88.4,27.9c0,5,.5,6.4,1.8,6.4s1.8-1.5,1.8-6.4-.5-6.4-1.8-6.4c-1.3.1-1.8,1.6-1.8,6.4"/>
  <path class="st0" d="M98.3,33.7c1.6,0,2.1-.7,2.1-2.4v-5.9c0-.9-.7-1.5-1.6-1.5h-.7v-1.9l5.6-1.7h1.6v2.4c0,1.2,0,3,0,3.7h0c.5-4.5,2.5-6.4,4.8-6.4s.6,0,.9.1v5.2c-1.9-.3-5.3-.2-5.3,3.3v2.6c0,1.7.6,2.4,2.1,2.4v1.8h-9.7v-1.7h.2Z"/>
  <path class="st0" d="M110.7,33.7c1.6,0,2.1-.7,2.1-2.4v-13.1c0-.9-.7-1.4-1.6-1.4h-.7v-2l6.5-1.6h1.1v13.8h.2l2.6-1.2c1.2-.6,1.5-1.1,1.5-1.9s-.8-1.6-2-1.6v-1.8h7.9v1.6c-1.7,2-3.3,2.8-5.1,3.7l3.5,4.7c1.1,1.5,1.8,3,2.9,3v1.8h-6.6l-4.6-7.4h-.2v3.7c0,1.2,0,1.8,1.3,1.8v1.8h-8.9v-1.6h0Z"/>
</svg>